<?xml version="1.0" encoding="UTF-8"?>
<svg version="1.1" xmlns="http://www.w3.org/2000/svg" width="512" height="512">
<path d="M0 0 C1.10736511 -0.0038269 2.21473022 -0.00765381 3.35565186 -0.01159668 C5.6991873 -0.01431841 8.04275298 -0.00693908 10.38623047 0.00976562 C13.95740404 0.03108896 17.526547 0.01001323 21.09765625 -0.015625 C23.37760858 -0.01298018 25.65755966 -0.00785203 27.9375 0 C28.99922424 -0.00809692 30.06094849 -0.01619385 31.15484619 -0.02453613 C38.75880486 0.07062166 44.10335557 1.34936363 49.9765625 6.49609375 C55.12681278 12.71828607 56.82059401 16.32128398 56.734375 24.53125 C57.44483601 24.52664104 58.15529701 24.52203207 58.88728714 24.51728344 C76.2160725 24.40661047 93.54476749 24.32399965 110.87382889 24.27218914 C119.25423162 24.24646461 127.63439767 24.21142496 136.01464844 24.15405273 C143.32333378 24.10404065 150.63184762 24.07191723 157.94069934 24.06080753 C161.80674406 24.05431866 165.67229839 24.03919028 169.53818512 24.00259972 C173.18593075 23.96835751 176.83298963 23.95825289 180.48088074 23.96571159 C182.43959371 23.9637059 184.39823394 23.93695971 186.35675049 23.90914917 C200.88618469 23.99275516 211.16940574 29.95931651 221.296875 39.96875 C222.5034375 41.2371875 222.5034375 41.2371875 223.734375 42.53125 C226.77471038 41.18876425 228.65015418 39.7458079 230.859375 37.28125 C238.36879804 29.5627852 248.20730486 24.4618612 259.01135254 24.17048645 C261.50560931 24.16183508 263.99995735 24.16966237 266.49414062 24.19067383 C267.87461325 24.19152128 269.25508723 24.19104265 270.63555908 24.18934631 C274.36235936 24.18848955 278.08886688 24.20606315 281.81559944 24.22706819 C285.71799337 24.24588854 289.62039484 24.24758963 293.52282715 24.25114441 C300.90331267 24.2604492 308.28366404 24.28504163 315.66409063 24.31519288 C324.07038504 24.34878581 332.47668602 24.36523517 340.88303089 24.38027918 C358.16688971 24.41159269 375.45061814 24.46432252 392.734375 24.53125 C392.72212891 23.42136719 392.70988281 22.31148438 392.69726562 21.16796875 C392.75554831 15.45626572 394.71276098 11.68369916 398.60546875 7.5390625 C403.66613568 2.92802004 407.91608527 0.30120495 414.92016602 0.24072266 C415.92793594 0.22796295 416.93570587 0.21520325 417.97401428 0.20205688 C419.58982643 0.19871841 419.58982643 0.19871841 421.23828125 0.1953125 C422.91143654 0.1853273 422.91143654 0.1853273 424.61839294 0.17514038 C426.9727107 0.16502943 429.32705703 0.16032288 431.68139648 0.16064453 C435.28742329 0.15626149 438.8922357 0.11989657 442.49804688 0.08203125 C444.78645415 0.07616485 447.07486723 0.07219427 449.36328125 0.0703125 C450.44251358 0.05594147 451.52174591 0.04157043 452.63368225 0.02676392 C453.63830002 0.03291718 454.64291779 0.03907043 455.67797852 0.04541016 C457.00104759 0.0411351 457.00104759 0.0411351 458.35084534 0.03677368 C461.51155373 0.69248 462.7173593 2.07086974 464.734375 4.53125 C465.265625 6.53125 465.265625 6.53125 465.234375 8.53125 C465.24984375 9.52125 465.24984375 9.52125 465.265625 10.53125 C464.44460146 13.62216214 463.32360298 14.61705763 460.734375 16.53125 C457.46021845 17.13604149 454.21647413 17.08841042 450.89453125 17.0703125 C449.93542343 17.08210541 448.97631561 17.09389832 447.98814392 17.10604858 C444.92422278 17.14134036 441.86098284 17.15048 438.796875 17.15625 C435.73654277 17.17260641 432.67651493 17.19469034 429.61631775 17.22787476 C427.71320929 17.24745852 425.80996165 17.25684465 423.90675354 17.25479126 C417.52878243 17.1918339 417.52878243 17.1918339 411.734375 19.53125 C409.65503645 23.55570425 409.48316387 26.98909465 409.48040771 31.47680664 C409.47728773 32.16358773 409.47416775 32.85036882 409.47095323 33.55796146 C409.46299453 35.85253112 409.46928846 38.14683476 409.47558594 40.44140625 C409.47287513 42.08918411 409.46931369 43.73696076 409.46496582 45.38473511 C409.45585026 49.85573677 409.45938265 54.32664611 409.46572399 58.79764938 C409.47078828 63.47716266 409.46609134 68.15666805 409.46295166 72.83618164 C409.45931327 80.69451313 409.46410779 88.55280703 409.47363281 96.41113281 C409.48451712 105.49578775 409.48099145 114.58035292 409.46998 123.66500568 C409.46090352 131.46555252 409.45962362 139.26607233 409.46485734 147.06662273 C409.46797505 151.72526712 409.46839184 156.38386931 409.46178436 161.04251099 C409.45600629 165.4222954 409.46001627 169.80196408 409.47157288 174.18173599 C409.47421699 175.78897026 409.47345861 177.39621428 409.46904755 179.00344467 C409.4635808 181.19765898 409.47043971 183.39150265 409.48040771 185.58569336 C409.48116177 186.81348007 409.48191582 188.04126678 409.48269272 189.30625916 C409.73191383 192.49971316 410.26969828 194.69644252 411.734375 197.53125 C416.17785921 200.4068601 421.59783819 199.81019985 426.70703125 199.8046875 C428.67774015 199.8249669 430.64844325 199.84581749 432.61914062 199.8671875 C435.7156263 199.88983091 438.81188244 199.90627826 441.90844727 199.91210938 C444.90422643 199.9216145 447.89898105 199.9553551 450.89453125 199.9921875 C451.82064713 199.98714203 452.746763 199.98209656 453.70094299 199.97689819 C460.11769998 200.07534785 460.11769998 200.07534785 463.31616211 202.43994141 C464.84883487 204.70003348 465.27664889 205.82572113 465.234375 208.53125 C465.24984375 209.52125 465.24984375 209.52125 465.265625 210.53125 C464.4267211 213.68947645 463.43069365 214.6048856 460.734375 216.53125 C456.9855305 217.15137471 453.26118077 217.09120295 449.46875 217.0625 C448.36138489 217.0663269 447.25401978 217.07015381 446.11309814 217.07409668 C443.7695627 217.07681841 441.42599702 217.06943908 439.08251953 217.05273438 C435.51134596 217.03141104 431.942203 217.05248677 428.37109375 217.078125 C426.09114142 217.07548018 423.81119034 217.07035203 421.53125 217.0625 C419.93866364 217.07464539 419.93866364 217.07464539 418.31390381 217.08703613 C410.70994514 216.99187834 405.36539443 215.71313637 399.4921875 210.56640625 C394.18391434 204.15330112 392.734375 201.22012267 392.734375 192.53125 C384.484375 192.53125 376.234375 192.53125 367.734375 192.53125 C368.064375 193.85125 368.394375 195.17125 368.734375 196.53125 C369.5327735 207.14073781 368.49524518 214.66241087 361.484375 222.84375 C355.19409544 229.43064436 349.4601876 232.52668657 340.30249023 232.92529297 C328.10062339 233.18168918 319.5656842 228.96113605 310.734375 220.53125 C310.65058594 221.253125 310.56679688 221.975 310.48046875 222.71875 C308.85019224 228.86429495 303.35688913 233.70129947 298.265625 237.25390625 C290.21487731 241.62322026 282.14037884 242.4594553 273.25 240.390625 C266.1991823 237.98196057 260.23501004 233.45287083 254.734375 228.53125 C254.65058594 229.253125 254.56679688 229.975 254.48046875 230.71875 C252.85019224 236.86429495 247.35688913 241.70129947 242.265625 245.25390625 C234.21487731 249.62322026 226.14037884 250.4594553 217.25 248.390625 C210.1991823 245.98196057 204.23501004 241.45287083 198.734375 236.53125 C198.65058594 237.253125 198.56679687 237.975 198.48046875 238.71875 C196.85019224 244.86429495 191.35688913 249.70129947 186.265625 253.25390625 C178.32009278 257.56611756 170.14274827 258.57761582 161.36286926 256.37336731 C151.83289948 253.32015444 145.05079081 246.36127889 138.26084328 239.35837746 C136.59183442 237.63755862 134.90998487 235.93021804 133.22453308 234.22550964 C129.65380994 230.60947007 126.09921767 226.97783586 122.546875 223.34375 C118.41555364 219.11767037 114.27768653 214.89843684 110.12259483 210.69571495 C108.47298288 209.02035083 106.83596752 207.33333634 105.19917297 205.64546204 C104.1813148 204.61306587 103.16288637 203.5812315 102.14379883 202.55004883 C101.26573074 201.65103348 100.38766266 200.75201813 99.48298645 199.82575989 C92.94423936 194.36728745 85.53844345 193.49138561 77.2421875 193.21484375 C76.04335937 193.17294922 74.84453125 193.13105469 73.609375 193.08789062 C72.371875 193.04857422 71.134375 193.00925781 69.859375 192.96875 C68.59867187 192.92556641 67.33796875 192.88238281 66.0390625 192.83789062 C62.93760077 192.73215898 59.83606355 192.63006429 56.734375 192.53125 C56.7653125 193.60375 56.79625 194.67625 56.828125 195.78125 C56.68399848 201.546311 54.80177092 205.33005602 50.86328125 209.5234375 C45.80261432 214.13447996 41.55266473 216.76129505 34.54858398 216.82177734 C33.03692909 216.8409169 33.03692909 216.8409169 31.49473572 216.86044312 C30.41752762 216.86266876 29.34031952 216.86489441 28.23046875 216.8671875 C26.55731346 216.8771727 26.55731346 216.8771727 24.85035706 216.88735962 C22.4960393 216.89747057 20.14169297 216.90217712 17.78735352 216.90185547 C14.18132671 216.90623851 10.5765143 216.94260343 6.97070312 216.98046875 C4.68229585 216.98633515 2.39388277 216.99030573 0.10546875 216.9921875 C-0.97376358 217.00655853 -2.05299591 217.02092957 -3.16493225 217.03573608 C-4.16955002 217.02958282 -5.17416779 217.02342957 -6.20922852 217.01708984 C-7.09127457 217.01993988 -7.97332062 217.02278992 -8.88209534 217.02572632 C-12.04280373 216.37002 -13.2486093 214.99163026 -15.265625 212.53125 C-15.796875 210.53125 -15.796875 210.53125 -15.765625 208.53125 C-15.78109375 207.54125 -15.78109375 207.54125 -15.796875 206.53125 C-14.97585146 203.44033786 -13.85485298 202.44544237 -11.265625 200.53125 C-7.99146845 199.92645851 -4.74772413 199.97408958 -1.42578125 199.9921875 C-0.46667343 199.98039459 0.49243439 199.96860168 1.48060608 199.95645142 C4.54452722 199.92115964 7.60776716 199.91202 10.671875 199.90625 C13.73220723 199.88989359 16.79223507 199.86780966 19.85243225 199.83462524 C21.75554071 199.81504148 23.65878835 199.80565535 25.56199646 199.80770874 C31.93996757 199.8706661 31.93996757 199.8706661 37.734375 197.53125 C39.81371355 193.50679575 39.98558613 190.07340535 39.98834229 185.58569336 C39.99302226 184.55552172 39.99302226 184.55552172 39.99779677 183.50453854 C40.00575547 181.20996888 39.99946154 178.91566524 39.99316406 176.62109375 C39.99587487 174.97331589 39.99943631 173.32553924 40.00378418 171.67776489 C40.01289974 167.20676323 40.00936735 162.73585389 40.00302601 158.26485062 C39.99796172 153.58533734 40.00265866 148.90583195 40.00579834 144.22631836 C40.00943673 136.36798687 40.00464221 128.50969297 39.99511719 120.65136719 C39.98423288 111.56671225 39.98775855 102.48214708 39.99877 93.39749432 C40.00784648 85.59694748 40.00912638 77.79642767 40.00389266 69.99587727 C40.00077495 65.33723288 40.00035816 60.67863069 40.00696564 56.01998901 C40.01274371 51.6402046 40.00873373 47.26053592 39.99717712 42.88076401 C39.99453301 41.27352974 39.99529139 39.66628572 39.99970245 38.05905533 C40.0051692 35.86484102 39.99831029 33.67099735 39.98834229 31.47680664 C39.98758823 30.24901993 39.98683418 29.02123322 39.98605728 27.75624084 C39.73683617 24.56278684 39.19905172 22.36605748 37.734375 19.53125 C33.29089079 16.6556399 27.87091181 17.25230015 22.76171875 17.2578125 C20.79100985 17.2375331 18.82030675 17.21668251 16.84960938 17.1953125 C13.7531237 17.17266909 10.65686756 17.15622174 7.56030273 17.15039062 C4.56452357 17.1408855 1.56976895 17.1071449 -1.42578125 17.0703125 C-2.81495506 17.07788071 -2.81495506 17.07788071 -4.23219299 17.08560181 C-10.64894998 16.98715215 -10.64894998 16.98715215 -13.84741211 14.62255859 C-15.38008487 12.36246652 -15.80789889 11.23677887 -15.765625 8.53125 C-15.78109375 7.54125 -15.78109375 7.54125 -15.796875 6.53125 C-13.74912323 -1.17793314 -6.48869613 -0.04910959 0 0 Z M56.734375 40.53125 C56.734375 85.41125 56.734375 130.29125 56.734375 176.53125 C68.614375 176.86125 80.494375 177.19125 92.734375 177.53125 C106.24324656 182.44356693 113.68860904 189.16818926 123.55881882 199.20536423 C125.11000979 200.78255003 126.66777306 202.3529902 128.22720337 203.92202759 C131.52701189 207.24442995 134.81875371 210.57475142 138.109375 213.90625 C141.94772126 217.79194543 145.78938335 221.67424618 149.63951492 225.54826736 C151.17028918 227.09195311 152.69489732 228.64155288 154.21932983 230.1914978 C155.14774689 231.1265213 156.07616394 232.0615448 157.03271484 233.02490234 C157.84638519 233.84904633 158.66005554 234.67319031 159.49838257 235.52230835 C163.68250013 239.28155544 166.98527929 239.98332473 172.484375 239.84765625 C177.03134949 239.20823796 179.71578844 236.71960099 182.609375 233.34375 C184.2189037 229.31992826 184.38954911 225.80511829 183.734375 221.53125 C181.21138731 216.26588439 176.82515819 212.49259291 172.66015625 208.484375 C169.82806603 205.61207255 169.75018266 204.78022064 169.484375 200.59375 C169.53817104 198.12361504 169.62085468 196.75829063 170.734375 194.53125 C174.12089698 192.83798901 177.1254719 192.6609039 180.734375 193.53125 C189.99309203 199.53457531 197.76848238 209.53215006 205.48193359 217.37475586 C207.41066355 219.33364448 209.34553342 221.28629986 211.28125 223.23828125 C211.86984802 223.8403389 212.45844604 224.44239655 213.06488037 225.06269836 C213.61935852 225.62055527 214.17383667 226.17841217 214.74511719 226.75317383 C215.22728699 227.24280106 215.70945679 227.73242828 216.20623779 228.2368927 C220.0651695 231.5054712 223.574561 231.96878653 228.484375 231.84765625 C233.03134949 231.20823796 235.71578844 228.71960099 238.609375 225.34375 C240.18063732 221.41559421 240.60194313 217.69147829 239.734375 213.53125 C236.12829077 206.84910966 230.24850264 202.02690498 224.7578125 196.89648438 C220.34031328 192.62853591 217.61653536 189.69870155 216.734375 183.53125 C217.171875 180.71875 217.171875 180.71875 218.734375 178.53125 C221.984375 177.03125 221.984375 177.03125 225.734375 176.53125 C230.01114971 178.28040196 232.98596175 180.41725799 236.20751953 183.69555664 C237.44878098 184.94684105 237.44878098 184.94684105 238.71511841 186.22340393 C239.59030121 187.1203447 240.46548401 188.01728546 241.3671875 188.94140625 C242.76395371 190.35190426 244.16072527 191.76239703 245.55781364 193.17257595 C247.50408395 195.1406287 249.44352438 197.11534129 251.3828125 199.090271 C254.78320389 202.55264869 258.1883485 206.01028819 261.60250854 209.45909119 C263.41731351 211.29367825 265.22716301 213.13318331 267.03152466 214.9780426 C267.85272797 215.80908005 268.67393127 216.64011749 269.52001953 217.49633789 C270.23916534 218.22897354 270.95831116 218.96160919 271.69924927 219.71644592 C275.77596746 223.35182072 279.15465083 223.97914616 284.484375 223.84765625 C289.03134949 223.20823796 291.71578844 220.71960099 294.609375 217.34375 C296.18063732 213.41559421 296.60194313 209.69147829 295.734375 205.53125 C292.95549596 200.90588968 289.74008688 197.27825249 285.91015625 193.546875 C285.36328659 193.00520691 284.81641693 192.46353882 284.25297546 191.90545654 C282.52235096 190.19250331 280.78512734 188.48645938 279.046875 186.78125 C277.2988433 185.06085802 275.55231389 183.33900517 273.80863953 181.61419678 C272.72741176 180.54520894 271.64352173 179.47890572 270.55671692 178.41558838 C267.01804838 174.92432333 265.80621352 173.66270676 265.484375 168.59375 C265.53817104 166.12361504 265.62085468 164.75829063 266.734375 162.53125 C270.11598553 160.84044474 273.13250847 160.6408473 276.734375 161.53125 C278.53692627 162.75590515 278.53692627 162.75590515 280.34863281 164.41674805 C281.04420288 165.05421967 281.73977295 165.69169128 282.4564209 166.34848022 C286.29229581 170.02407308 290.05861917 173.76426066 293.79177094 177.5440464 C295.25248222 179.02242138 296.71694296 180.49699069 298.18243408 181.97062683 C302.34230319 186.15472933 306.49625058 190.34467597 310.64599609 194.53881836 C313.19913708 197.11875385 315.75714004 199.6937854 318.3181839 202.26587486 C319.28810118 203.24198415 320.25611894 204.21998484 321.22216034 205.19993019 C322.56896496 206.56597629 323.92252469 207.92535242 325.27636719 209.28442383 C326.04277527 210.05828934 326.80918335 210.83215485 327.59881592 211.62947083 C331.73339222 215.31143457 335.07344155 215.98614299 340.484375 215.84375 C344.07307077 215.34532003 346.07827101 213.9343917 348.734375 211.53125 C351.6568647 207.14751546 352.293899 203.75347401 351.734375 198.53125 C349.47415624 192.63033227 345.47314349 188.89833475 341.0390625 184.578125 C340.29101349 183.8366925 339.54296448 183.09526001 338.77224731 182.33135986 C336.3916451 179.97408744 334.00108231 177.62724976 331.609375 175.28125 C329.2123158 172.91923693 326.8174093 170.55509631 324.42507935 168.18829346 C322.93805229 166.71826639 321.44795898 165.25133346 319.95455933 163.78778076 C319.28361237 163.12659241 318.61266541 162.46540405 317.92138672 161.78417969 C317.3286496 161.20271179 316.73591248 160.6212439 316.12521362 160.02215576 C313.38363636 157.08332931 313.44542918 154.38201233 313.53125 150.44140625 C313.734375 148.53125 313.734375 148.53125 314.734375 146.53125 C318.12011575 144.83837962 321.12764912 144.6529875 324.734375 145.53125 C329.927887 148.84397823 333.72667752 153.68217159 337.5 158.46484375 C343.8293546 166.34520144 343.8293546 166.34520144 356.734375 176.53125 C368.614375 176.53125 380.494375 176.53125 392.734375 176.53125 C392.734375 131.65125 392.734375 86.77125 392.734375 40.53125 C371.305 40.49 349.875625 40.44875 327.796875 40.40625 C321.03968994 40.38804199 314.28250488 40.36983398 307.32055664 40.35107422 C301.24401194 40.34438383 301.24401194 40.34438383 295.16746521 40.34036255 C292.46861851 40.33729874 289.76996138 40.33103424 287.07115173 40.32009888 C282.97456394 40.30372165 278.8781146 40.3034393 274.78149414 40.30419922 C273.58662164 40.297003 272.39174913 40.28980679 271.16066837 40.2823925 C258.91886935 40.31271236 251.23977692 41.85564887 242.26585388 50.72871399 C241.47538414 51.52525642 241.47538414 51.52525642 240.66894531 52.33789062 C239.80925896 53.19232002 239.80925896 53.19232002 238.9322052 54.06401062 C237.05393439 55.93353453 235.1830088 57.81021241 233.3125 59.6875 C232.00336416 60.99528754 230.69393164 62.30277816 229.38421631 63.60998535 C226.64757513 66.34368513 223.91456619 69.08095162 221.18408203 71.82080078 C217.68482703 75.33147227 214.17663936 78.83305829 210.66569901 82.33203888 C207.96321687 85.02729516 205.26551487 87.72729532 202.56923676 90.42875671 C201.27731858 91.7220082 199.98391541 93.01377799 198.68900299 94.30403137 C196.88185973 96.10609513 195.08125223 97.91444651 193.28222656 99.72460938 C192.74714981 100.25563766 192.21207306 100.78666595 191.66078186 101.33378601 C187.73605074 105.30364149 185.45833332 108.26562555 185.359375 113.90625 C185.4720438 118.47309189 186.66795713 121.05045134 189.734375 124.53125 C193.46561001 127.82351619 197.29836544 128.2402031 202.12890625 128.0546875 C209.1859799 126.63692458 213.83044945 120.5030902 218.421875 115.37109375 C225.35589577 107.71827999 232.66995366 100.44504668 239.98071289 93.15454102 C242.32752533 90.81317074 244.66883931 88.46639443 247.00976562 86.11914062 C248.50228296 84.62728275 249.99510974 83.13573437 251.48828125 81.64453125 C252.18715958 80.94362869 252.8860379 80.24272614 253.60609436 79.52058411 C254.5736692 78.5577375 254.5736692 78.5577375 255.56079102 77.57543945 C256.12717789 77.00984818 256.69356476 76.4442569 257.27711487 75.86152649 C260.21017485 73.18404931 262.89252709 73.34776768 266.76171875 73.203125 C268.734375 73.53125 268.734375 73.53125 270.40625 74.60546875 C272.36439228 77.44477506 272.53950595 80.2009352 273.046875 83.59375 C274.87442334 93.93742496 278.82846816 100.98991543 287.4375 107.12890625 C294.94418316 111.71206825 302.72341429 112.60520519 311.4375 112.7421875 C312.6646875 112.77054687 313.891875 112.79890625 315.15625 112.828125 C317.72380532 112.88052409 320.29154076 112.9246979 322.859375 112.9609375 C324.08140625 112.991875 325.3034375 113.0228125 326.5625 113.0546875 C327.6752832 113.07450684 328.78806641 113.09432617 329.93457031 113.11474609 C332.734375 113.53125 332.734375 113.53125 334.59521484 114.93994141 C336.01761629 116.92691368 336.13696829 118.10304051 336.109375 120.53125 C336.11710937 121.211875 336.12484375 121.8925 336.1328125 122.59375 C335.58337366 125.26553105 334.97744987 125.93769712 332.734375 127.53125 C329.95455809 127.85490025 327.40380425 127.9992738 324.62109375 128 C323.81509232 128.00761353 323.00909088 128.01522705 322.17866516 128.02307129 C320.46639088 128.03388463 318.75405057 128.03672037 317.04174805 128.03222656 C314.46870244 128.03126746 311.89877628 128.07258875 309.32617188 128.1171875 C294.96973387 128.22195744 282.49386449 125.86121895 271.734375 115.53125 C266.5855021 110.42415294 263.02761832 104.96444371 259.734375 98.53125 C254.59854595 102.8082821 249.890696 107.31661073 245.25390625 112.125 C243.82824984 113.58279043 242.40179208 115.03979753 240.97460938 116.49609375 C238.76007164 118.75984344 236.55045314 121.02753282 234.35424805 123.30908203 C215.45346758 142.91161891 215.45346758 142.91161891 203.37890625 144.2578125 C192.26889065 143.96335745 184.78128185 142.15926748 176.4609375 134.46875 C170.22905068 127.47550145 169.26315984 119.44712419 169.4765625 110.38671875 C170.14592511 100.37670511 174.6565414 94.97717274 181.78515625 88.3671875 C183.99364464 86.30976106 185.97468336 84.14426673 187.9375 81.8515625 C192.42024444 76.6510632 197.29668723 71.86080967 202.171875 67.03125 C203.09419922 66.1134375 204.01652344 65.195625 204.96679688 64.25 C207.22037399 62.00809945 209.47626575 59.768584 211.734375 57.53125 C208.79350959 51.31913069 203.39970069 45.38151331 197.046875 42.53125 C192.02410745 41.01494282 187.27713989 40.40596904 182.0395813 40.41099548 C180.93137087 40.40961799 179.82316044 40.40824049 178.68136787 40.40682125 C177.47570105 40.41041936 176.27003422 40.41401747 175.02783203 40.41772461 C173.7286125 40.41760407 172.42939297 40.41748354 171.09080315 40.41735935 C167.58761579 40.4171343 164.08446283 40.42291536 160.58128357 40.42996979 C157.28978573 40.43567956 153.99828931 40.43593372 150.70678711 40.43664551 C141.09097855 40.4418855 131.47517633 40.45584672 121.859375 40.46875 C89.6225 40.4996875 89.6225 40.4996875 56.734375 40.53125 Z " fill="#000000" transform="translate(31.265625,239.46875)"/>
<path d="M0 0 C1.54832245 1.20975066 3.09635458 2.41998791 4.63183594 3.64599609 C6.29009624 4.96950198 7.95974475 6.27730595 9.6328125 7.58203125 C12.58574756 9.88812896 15.52819366 12.20718664 18.46777344 14.53027344 C20.7787169 16.35496907 23.09400821 18.17409094 25.40988159 19.99252319 C27.10794809 21.3259519 28.80575328 22.65971212 30.50341797 23.99365234 C31.11144257 24.47140106 31.71946716 24.94914978 32.34591675 25.44137573 C32.97426422 25.93509674 33.60261169 26.42881775 34.25 26.9375 C35.4986958 27.91862248 36.74739371 28.89974228 37.99609375 29.88085938 C41.4140625 32.56640625 44.83203125 35.25195313 48.25 37.9375 C48.26401855 36.06046387 48.26401855 36.06046387 48.27832031 34.14550781 C48.31820482 29.5009405 48.38395941 24.85703665 48.45751953 20.21289062 C48.48573807 18.20321173 48.50694821 16.19342166 48.52099609 14.18359375 C48.54241335 11.29369151 48.58905703 8.4051271 48.640625 5.515625 C48.64185364 4.61757141 48.64308228 3.71951782 48.64434814 2.79425049 C48.66406677 1.95368103 48.6837854 1.11311157 48.70410156 0.24707031 C48.71298401 -0.49017273 48.72186646 -1.22741577 48.73101807 -1.98699951 C49.49842904 -5.05601163 50.71094034 -6.19997268 53.25 -8.0625 C56.4375 -8.57043457 56.4375 -8.57043457 60.25 -8.58007812 C60.94641602 -8.5870874 61.64283203 -8.59409668 62.36035156 -8.60131836 C64.65730932 -8.61889196 66.95303021 -8.60727919 69.25 -8.59375 C70.84896073 -8.59644513 72.44791987 -8.60032773 74.046875 -8.60534668 C77.39599226 -8.61124082 80.74468243 -8.60268192 84.09375 -8.58398438 C88.38478591 -8.56119435 92.67482111 -8.57431796 96.96582031 -8.59827423 C100.26700366 -8.6127348 103.56795011 -8.60812515 106.86914062 -8.59776306 C108.45117308 -8.59509646 110.03322711 -8.59836322 111.61523438 -8.60768127 C113.82740163 -8.61785179 116.037953 -8.6023419 118.25 -8.58007812 C120.1371875 -8.57530457 120.1371875 -8.57530457 122.0625 -8.57043457 C125.25 -8.0625 125.25 -8.0625 127.66726685 -6.65577698 C130.15075843 -2.58662513 129.7052877 1.27660302 129.57373047 5.94750977 C129.56158005 6.96430313 129.54942963 7.9810965 129.53691101 9.02870178 C129.50940619 11.23757306 129.47349264 13.44635187 129.43020248 15.65497017 C129.36666576 19.15766931 129.33633203 22.65913327 129.31668091 26.16233826 C129.25919986 36.12232455 129.17683882 46.08088093 128.98632812 56.03930664 C128.87216127 62.13287254 128.82685342 68.22372149 128.82529068 74.31831169 C128.81164878 76.63449168 128.77251516 78.95067359 128.70684433 81.2659626 C127.82512132 94.37667401 127.82512132 94.37667401 133.21832275 105.68063354 C136.06462233 108.13895193 139.1057146 110.0479629 142.39668655 111.85171318 C145.59288438 113.72424558 148.3880783 116.0984169 151.25 118.4375 C152.4032644 119.34848947 153.55801697 120.25760103 154.71484375 121.1640625 C155.29089355 121.6168457 155.86694336 122.06962891 156.46044922 122.53613281 C158.32468905 123.99598774 160.19493415 125.44786827 162.06640625 126.8984375 C163.00709961 127.63030273 163.00709961 127.63030273 163.96679688 128.37695312 C165.15733501 129.30292723 166.3499 130.22630406 167.54492188 131.14648438 C169.13354145 132.38459002 170.69249919 133.66046869 172.25 134.9375 C173.20777344 135.70320312 174.16554688 136.46890625 175.15234375 137.2578125 C177.48924531 140.24312808 177.93712419 142.18467251 177.67675781 145.96972656 C176.96288675 149.26137462 175.27420146 151.26248284 173.125 153.8125 C172.21383564 154.9197441 171.30374462 156.02787204 170.39453125 157.13671875 C169.89518066 157.73403809 169.39583008 158.33135742 168.88134766 158.94677734 C167.06353916 161.16503692 165.31599975 163.42862035 163.57421875 165.70703125 C162.95111816 166.52123535 162.32801758 167.33543945 161.68603516 168.17431641 C160.45157053 169.78906177 159.21814609 171.40460295 157.98583984 173.02099609 C157.12853271 174.13015381 157.12853271 174.13015381 156.25390625 175.26171875 C155.74674072 175.92260498 155.2395752 176.58349121 154.71704102 177.2644043 C152.32664245 179.99054865 150.58264954 180.89277401 146.99609375 181.375 C142.18067197 180.81261498 139.92176535 179.00392521 136.3125 175.9375 C135.72404297 175.46054688 135.13558594 174.98359375 134.52929688 174.4921875 C133.09045243 173.32239527 131.6684282 172.13196585 130.25 170.9375 C130.24635437 171.54249329 130.24270874 172.14748657 130.23895264 172.77081299 C130.19715638 179.06521072 130.12783118 185.35887731 130.04248047 191.65283203 C130.01424712 194.00204152 129.99304442 196.35134641 129.97900391 198.70068359 C129.95760776 202.07699518 129.91097263 205.45215667 129.859375 208.828125 C129.85814636 209.87929504 129.85691772 210.93046509 129.85565186 212.01348877 C129.70917086 219.29878606 129.70917086 219.29878606 127.33691406 222.59863281 C125.08623638 224.04256314 123.90442831 224.47897544 121.25 224.4375 C120.26 224.45296875 120.26 224.45296875 119.25 224.46875 C116.30919039 223.68759745 115.1491326 222.2880447 113.25 219.9375 C112.82522583 217.13877869 112.82522583 217.13877869 112.92626953 213.87475586 C112.96447311 212.0365049 112.96447311 212.0365049 113.00344849 210.16111755 C113.02534367 209.50848875 113.04723885 208.85585995 113.06979752 208.18345451 C113.13364229 206.12559772 113.16372432 204.06985224 113.18331909 202.01112366 C113.24062266 196.16041658 113.3223828 190.31213802 113.51367188 184.46411133 C114.93477095 167.61772504 114.93477095 167.61772504 109.37402344 152.73486328 C106.52324708 150.2095677 103.42431141 148.42759401 99.99261475 146.80325317 C97.53523101 145.58239367 95.53951571 143.93793551 93.4375 142.1875 C92.04187367 141.1039 90.64604287 140.02056329 89.25 138.9375 C81.00276059 132.53069162 72.78681521 126.08505062 64.58203125 119.62402344 C57.48864574 114.03942914 50.37907006 108.47649315 43.25 102.9375 C35.00322189 96.53009384 26.78681931 90.08505385 18.58203125 83.62402344 C16.88835082 82.29059555 15.19431133 80.95762615 13.5 79.625 C12.93539062 79.18091797 12.37078125 78.73683594 11.7890625 78.27929688 C6.87356038 74.41789688 1.93734465 70.58340869 -3 66.75 C-9.29243374 61.86405571 -15.55633623 56.9484541 -21.75 51.9375 C-24.64856255 53.28868845 -27.07343725 54.83448641 -29.5859375 56.80859375 C-30.31329102 57.37731201 -31.04064453 57.94603027 -31.79003906 58.53198242 C-32.56057617 59.14017822 -33.33111328 59.74837402 -34.125 60.375 C-34.92647461 61.00317627 -35.72794922 61.63135254 -36.55371094 62.27856445 C-38.95498931 64.16169989 -41.35268544 66.04932261 -43.75 67.9375 C-45.0179577 68.93263765 -46.28616268 69.92746037 -47.5546875 70.921875 C-50.95628665 73.58974 -54.35364199 76.26296749 -57.75 78.9375 C-66.1676904 85.56618477 -74.60760638 92.16511372 -83.06835938 98.73876953 C-89.98236216 104.11288892 -96.87012567 109.51980036 -103.75 114.9375 C-112.16319383 121.56264385 -120.59761651 128.15933562 -129.05517578 134.7277832 C-134.3821865 138.86702221 -139.69404366 143.02489863 -144.984375 147.2109375 C-145.49742187 147.61570313 -146.01046875 148.02046875 -146.5390625 148.4375 C-147.01540131 148.82853912 -147.49174011 149.21957825 -147.98251343 149.62246704 C-149.75 150.9375 -149.75 150.9375 -151.78335571 151.99398804 C-154.28069558 153.42437218 -155.92807577 154.69441304 -157.75 156.9375 C-158.8943977 161.65784089 -158.7257936 166.33979269 -158.609375 171.1640625 C-158.60673403 172.55837833 -158.60820334 173.95270744 -158.61358643 175.34701538 C-158.61934877 179.0057058 -158.58100152 182.66245213 -158.52972412 186.32073975 C-158.45201112 192.1817679 -158.42826617 198.04266801 -158.4298172 203.90415573 C-158.4219854 205.947754 -158.38716068 207.98962844 -158.34954834 210.03286743 C-158.34039398 211.89532608 -158.34039398 211.89532608 -158.33105469 213.79541016 C-158.3158075 214.88761871 -158.3005603 215.97982727 -158.28485107 217.10513306 C-158.86142952 220.61601232 -159.99000653 221.76860118 -162.75 223.9375 C-164.75 224.46875 -164.75 224.46875 -166.75 224.4375 C-167.74 224.45296875 -167.74 224.45296875 -168.75 224.46875 C-171.89914647 223.63225797 -172.82282304 222.61823364 -174.75 219.9375 C-175.38569592 216.24395292 -175.35500262 212.56894668 -175.359375 208.828125 C-175.37591125 207.74617859 -175.39244751 206.66423218 -175.40948486 205.54949951 C-175.45805101 202.09544242 -175.47935566 198.64182589 -175.5 195.1875 C-175.52815236 192.84502982 -175.55807874 190.50258023 -175.58984375 188.16015625 C-175.66381224 182.41935104 -175.71540427 176.67867018 -175.75 170.9375 C-176.60722656 171.659375 -177.46445313 172.38125 -178.34765625 173.125 C-179.50187909 174.06339255 -180.6568681 175.00084326 -181.8125 175.9375 C-182.65458008 176.65292969 -182.65458008 176.65292969 -183.51367188 177.3828125 C-186.69612071 179.92877157 -188.35087774 180.89004394 -192.51782227 181.38549805 C-196.81729098 180.78956746 -198.01444649 179.23746056 -200.75 175.9375 C-201.49378906 175.09574219 -202.23757812 174.25398437 -203.00390625 173.38671875 C-205.11668078 170.85925413 -207.21159339 168.3205129 -209.28076172 165.75732422 C-210.30869369 164.48410971 -211.34203008 163.21524815 -212.37939453 161.94970703 C-214.06647444 159.87882255 -215.72320271 157.7865925 -217.375 155.6875 C-217.90810791 155.03869873 -218.44121582 154.38989746 -218.99047852 153.72143555 C-221.49060193 150.48363813 -223.11675483 147.91121688 -223.3984375 143.765625 C-222.59641782 139.03081002 -221.45607644 137.9169904 -217.75 134.9375 C-216.90695313 134.2252124 -216.90695313 134.2252124 -216.046875 133.49853516 C-214.1361756 131.88740321 -212.19783927 130.31598794 -210.25 128.75 C-209.54149902 128.17757568 -208.83299805 127.60515137 -208.10302734 127.01538086 C-202.32235428 122.3613611 -196.45873615 117.82644966 -190.55908203 113.32421875 C-186.96286164 110.56760177 -183.38858852 107.7826509 -179.8125 105 C-178.65886963 104.1023291 -178.65886963 104.1023291 -177.48193359 103.18652344 C-170.55432091 97.79169823 -163.64830858 92.36971607 -156.75 86.9375 C-148.3323096 80.30881523 -139.89239362 73.70988628 -131.43164062 67.13623047 C-124.51763784 61.76211108 -117.62987433 56.35519964 -110.75 50.9375 C-102.3323096 44.30881523 -93.89239362 37.70988628 -85.43164062 31.13623047 C-80.77837912 27.51934114 -76.13293483 23.89289022 -71.5 20.25 C-70.65912842 19.58895264 -70.65912842 19.58895264 -69.80126953 18.91455078 C-66.92998712 16.65598621 -64.06153199 14.39389203 -61.1953125 12.12890625 C-58.28058415 9.82663276 -55.35630068 7.53693969 -52.42724609 5.25292969 C-50.78261478 3.9630791 -49.1509327 2.65808101 -47.51953125 1.3515625 C-32.20683076 -10.64241583 -15.9953782 -11.77496179 0 0 Z M65.25 7.9375 C64.92 14.929375 64.59 21.92125 64.25 29.125 C64.10433594 31.30375732 63.95867187 33.48251465 63.80859375 35.72729492 C63.29513488 45.36747069 63.29513488 45.36747069 66.74215698 54.10305786 C70.40692467 57.94691783 74.60081005 60.83979331 79.11621094 63.5974884 C82.6833105 65.83761366 85.97269414 68.43917494 89.3125 71 C90.6260815 71.97731033 91.94100365 72.95282375 93.2578125 73.92578125 C98.1535088 77.58483581 102.90599206 81.41999278 107.64282227 85.28149414 C110.16449395 87.78910009 110.16449395 87.78910009 113.25 88.9375 C113.25 62.2075 113.25 35.4775 113.25 7.9375 C97.41 7.9375 81.57 7.9375 65.25 7.9375 Z M-42.25 19.5 C-43.04245117 20.11915283 -43.83490234 20.73830566 -44.65136719 21.3762207 C-47.0194692 23.22758094 -49.38513561 25.08200666 -51.75 26.9375 C-52.40162109 27.44829102 -53.05324219 27.95908203 -53.72460938 28.48535156 C-57.73695053 31.63114744 -61.74436101 34.78317656 -65.75 37.9375 C-74.1676904 44.56618477 -82.60760638 51.16511372 -91.06835938 57.73876953 C-97.98236216 63.11288892 -104.87012567 68.51980036 -111.75 73.9375 C-120.1676904 80.56618477 -128.60760638 87.16511372 -137.06835938 93.73876953 C-143.98236216 99.11288892 -150.87012567 104.51980036 -157.75 109.9375 C-172.6800404 121.69446975 -187.6695012 133.37400799 -202.75 144.9375 C-199.34445921 150.20380019 -195.87331138 155.2078193 -191.75 159.9375 C-186.68712801 158.37969323 -183.22917251 155.28564167 -179.25 151.9375 C-177.81098715 150.74737714 -176.37087018 149.55858813 -174.9296875 148.37109375 C-174.2190918 147.78440918 -173.50849609 147.19772461 -172.77636719 146.59326172 C-168.45453935 143.06185974 -163.9954534 139.70976778 -159.55908203 136.32421875 C-155.96286164 133.56760177 -152.38858852 130.7826509 -148.8125 128 C-147.65886963 127.1023291 -147.65886963 127.1023291 -146.48193359 126.18652344 C-139.55432091 120.79169823 -132.64830858 115.36971607 -125.75 109.9375 C-117.3323096 103.30881523 -108.89239362 96.70988628 -100.43164062 90.13623047 C-93.51763784 84.76211108 -86.62987433 79.35519964 -79.75 73.9375 C-71.33761711 67.31299474 -62.90464181 60.71610666 -54.44702148 54.14941406 C-50.86875856 51.36960016 -47.29521222 48.58442084 -43.73828125 45.77734375 C-43.11501953 45.28556641 -42.49175781 44.79378906 -41.84960938 44.28710938 C-40.70783295 43.38491883 -39.56710119 42.48140358 -38.42773438 41.57617188 C-36.87784312 40.35135144 -35.31395259 39.14431411 -33.75 37.9375 C-33.20005371 37.46973145 -32.65010742 37.00196289 -32.08349609 36.52001953 C-28.40006728 33.55475005 -25.54881156 32.10585444 -20.75 32.44384766 C-16.93642356 33.38513813 -14.23686819 35.66611931 -11.25 38.125 C-10.56639404 38.66237793 -9.88278809 39.19975586 -9.1784668 39.75341797 C-7.01826059 41.46093663 -4.88263472 43.19571058 -2.75 44.9375 C-1.37140516 46.05116685 0.00749647 47.16445405 1.38671875 48.27734375 C4.08428592 50.46105774 6.77262329 52.65560859 9.45703125 54.85546875 C14.36743245 58.86544471 19.40121725 62.70481064 24.44091797 66.55078125 C36.34822519 75.67810986 48.13102518 84.96910356 59.91796875 94.25097656 C67.01135426 99.83557086 74.12092994 105.39850685 81.25 110.9375 C89.49677811 117.34490616 97.71318069 123.78994615 105.91796875 130.25097656 C113.13904029 135.93609757 120.37406079 141.60300672 127.625 147.25 C128.36202148 147.82468018 129.09904297 148.39936035 129.85839844 148.99145508 C131.28243422 150.0993061 132.70944502 151.20334541 134.13964844 152.30322266 C135.5923762 153.42822956 137.03254449 154.56958174 138.46191406 155.72412109 C139.16799805 156.28309082 139.87408203 156.84206055 140.6015625 157.41796875 C141.23143066 157.92610107 141.86129883 158.4342334 142.51025391 158.95776367 C143.08437012 159.28107666 143.65848633 159.60438965 144.25 159.9375 C148.34457279 158.5726424 149.96667285 155.71995715 152.4375 152.375 C152.90091797 151.75947266 153.36433594 151.14394531 153.84179688 150.50976562 C154.98423225 148.99044435 156.11796157 147.46458373 157.25 145.9375 C153.30405993 141.76936136 149.03087276 138.36669486 144.4375 134.9375 C138.59215649 130.52588427 132.84273079 126.02770942 127.1875 121.375 C121.33026614 116.56418945 115.34704864 111.97140315 109.25634766 107.46118164 C103.72168004 103.34168179 98.36967981 99.02362297 93.03466797 94.65014648 C87.4630251 90.08861146 81.7836895 85.69286548 76.05908203 81.32421875 C64.15177481 72.19689014 52.36897482 62.90589644 40.58203125 53.62402344 C32.72130939 47.43530826 24.83791922 41.2767156 16.93603516 35.140625 C12.81731442 31.94059438 8.70854808 28.72878224 4.61425781 25.49755859 C-7.77559386 14.18440732 -7.77559386 14.18440732 -22.5 8.625 C-23.34046875 8.58761719 -24.1809375 8.55023438 -25.046875 8.51171875 C-31.54284906 9.53492854 -37.16471082 15.50992861 -42.25 19.5 Z " fill="#000000" transform="translate(278.75,24.0625)"/>
<path d="M0 0 C0.85247314 -0.00700928 1.70494629 -0.01401855 2.58325195 -0.02124023 C5.3995832 -0.03883756 8.21490864 -0.02719147 11.03125 -0.01367188 C12.98893425 -0.01636629 14.9466172 -0.02024829 16.90429688 -0.02526855 C21.00664007 -0.03116595 25.10863482 -0.02259281 29.2109375 -0.00390625 C34.47045628 0.01888337 39.72915864 0.00576159 44.98864746 -0.01819611 C49.0309871 -0.03264751 53.07313305 -0.0280511 57.11547852 -0.01768494 C59.05476986 -0.01501583 60.99407877 -0.01829385 62.93334961 -0.02760315 C65.6435405 -0.03775789 68.35240775 -0.02228315 71.0625 0 C71.86469971 -0.00809692 72.66689941 -0.01619385 73.4934082 -0.02453613 C77.03738646 0.02947028 79.12861721 0.22340325 82.02819824 2.34191895 C84.20959551 5.49947953 84.04922046 7.95824587 84.0625 11.76757812 C84.06824036 12.81026855 84.06824036 12.81026855 84.07409668 13.87402344 C84.0768118 15.33985853 84.06947835 16.8057424 84.05273438 18.27148438 C84.03131419 20.51086787 84.05254443 22.74704399 84.078125 24.98632812 C84.07548165 26.41341851 84.0703565 27.84050691 84.0625 29.26757812 C84.05798828 30.56179687 84.05347656 31.85601562 84.04882812 33.18945312 C83.45206106 37.02677792 82.58841949 38.20828763 79.53125 40.51757812 C77.53125 41.04882812 77.53125 41.04882812 75.53125 41.01757812 C74.87125 41.02789062 74.21125 41.03820312 73.53125 41.04882812 C71.53125 40.51757812 71.53125 40.51757812 67.53125 36.51757812 C67.53125 29.91757813 67.53125 23.31757813 67.53125 16.51757812 C46.41125 16.51757812 25.29125 16.51757812 3.53125 16.51757812 C3.53125 23.11757812 3.53125 29.71757812 3.53125 36.51757812 C-0.46875 40.51757812 -0.46875 40.51757812 -2.46875 41.04882812 C-3.45875 41.03335938 -3.45875 41.03335938 -4.46875 41.01757812 C-5.45875 41.03304687 -5.45875 41.03304687 -6.46875 41.04882812 C-9.45031897 40.25684887 -10.56485121 38.93204138 -12.46875 36.51757812 C-12.98632812 33.18945312 -12.98632812 33.18945312 -13 29.26757812 C-13.0038269 28.57245117 -13.00765381 27.87732422 -13.01159668 27.16113281 C-13.0143118 25.69529772 -13.00697835 24.22941385 -12.99023438 22.76367188 C-12.96881419 20.52428838 -12.99004443 18.28811226 -13.015625 16.04882812 C-13.01298165 14.62173774 -13.0078565 13.19464934 -13 11.76757812 C-12.99548828 10.47335938 -12.99097656 9.17914063 -12.98632812 7.84570312 C-12.46875 4.51757812 -12.46875 4.51757812 -10.96569824 2.34191895 C-7.44517654 -0.23027352 -4.19625448 -0.04235448 0 0 Z " fill="#000000" transform="translate(284.46875,207.482421875)"/>
<path d="M0 0 C0.85247314 -0.00700928 1.70494629 -0.01401855 2.58325195 -0.02124023 C5.3995832 -0.03883756 8.21490864 -0.02719147 11.03125 -0.01367188 C12.98893425 -0.01636629 14.9466172 -0.02024829 16.90429688 -0.02526855 C21.00664007 -0.03116595 25.10863482 -0.02259281 29.2109375 -0.00390625 C34.47045628 0.01888337 39.72915864 0.00576159 44.98864746 -0.01819611 C49.0309871 -0.03264751 53.07313305 -0.0280511 57.11547852 -0.01768494 C59.05476986 -0.01501583 60.99407877 -0.01829385 62.93334961 -0.02760315 C65.6435405 -0.03775789 68.35240775 -0.02228315 71.0625 0 C71.86469971 -0.00809692 72.66689941 -0.01619385 73.4934082 -0.02453613 C77.03738646 0.02947028 79.12861721 0.22340325 82.02819824 2.34191895 C84.20959551 5.49947953 84.04922046 7.95824587 84.0625 11.76757812 C84.06824036 12.81026855 84.06824036 12.81026855 84.07409668 13.87402344 C84.0768118 15.33985853 84.06947835 16.8057424 84.05273438 18.27148438 C84.03131419 20.51086787 84.05254443 22.74704399 84.078125 24.98632812 C84.07548165 26.41341851 84.0703565 27.84050691 84.0625 29.26757812 C84.05798828 30.56179687 84.05347656 31.85601562 84.04882812 33.18945312 C83.45206106 37.02677792 82.58841949 38.20828763 79.53125 40.51757812 C77.53125 41.04882812 77.53125 41.04882812 75.53125 41.01757812 C74.87125 41.02789062 74.21125 41.03820312 73.53125 41.04882812 C71.53125 40.51757812 71.53125 40.51757812 67.53125 36.51757812 C67.53125 29.91757813 67.53125 23.31757813 67.53125 16.51757812 C46.41125 16.51757812 25.29125 16.51757812 3.53125 16.51757812 C3.53125 23.11757812 3.53125 29.71757812 3.53125 36.51757812 C-0.46875 40.51757812 -0.46875 40.51757812 -2.46875 41.04882812 C-3.45875 41.03335938 -3.45875 41.03335938 -4.46875 41.01757812 C-5.45875 41.03304687 -5.45875 41.03304687 -6.46875 41.04882812 C-9.45031897 40.25684887 -10.56485121 38.93204138 -12.46875 36.51757812 C-12.98632812 33.18945312 -12.98632812 33.18945312 -13 29.26757812 C-13.0038269 28.57245117 -13.00765381 27.87732422 -13.01159668 27.16113281 C-13.0143118 25.69529772 -13.00697835 24.22941385 -12.99023438 22.76367188 C-12.96881419 20.52428838 -12.99004443 18.28811226 -13.015625 16.04882812 C-13.01298165 14.62173774 -13.0078565 13.19464934 -13 11.76757812 C-12.99548828 10.47335938 -12.99097656 9.17914063 -12.98632812 7.84570312 C-12.46875 4.51757812 -12.46875 4.51757812 -10.96569824 2.34191895 C-7.44517654 -0.23027352 -4.19625448 -0.04235448 0 0 Z " fill="#000000" transform="translate(156.46875,207.482421875)"/>
</svg>
